#N canvas 928 413 1949 923 10;
#X obj 393 32 tgl 15 0 empty empty empty 17 7 0 10 -262144 -1 -1 0
1;
#X obj 389 62 metro 100;
#X floatatom 402 267 5 0 0 0 - - -, f 5;
#X obj 402 297 t f b;
#X obj 493 131 sel 0;
#X obj 427 129 bng 15 250 50 0 empty empty empty 17 7 0 10 -262144
-1 -1;
#X obj 405 392 mtof;
#X floatatom 405 414 5 0 0 0 - - -, f 5;
#X obj 404 362 + 20;
#X obj 403 330 % 60;
#X obj 317 553 osc~;
#X obj 283 485 t f b;
#X msg 332 521 0;
#X obj 327 645 *~ 0.2;
#X obj 496 714 delwrite~ tappytap 1000;
#X obj 345 725 delread~ tappytap 100;
#X obj 162 724 delread~ tappytap 147;
#X obj 314 682 lop~ 1000;
#X obj 434 665 * 2;
#X obj 490 682 lop~ 10000;
#X obj 327 615 clip~ -1 1;
#X obj 493 101 random 16;
#X floatatom 1092 255 3 0 0 0 - - -, f 3;
#X obj 1092 285 t f b;
#X obj 1156 107 sel 0;
#X obj 1089 144 bng 15 250 50 0 empty empty empty 17 7 0 10 -262144
-1 -1;
#X obj 1095 380 mtof;
#X floatatom 1095 402 5 0 0 0 - - -, f 5;
#X obj 1093 318 % 60;
#X obj 1182 577 osc~;
#X obj 1148 509 t f b;
#X msg 1197 545 0;
#X obj 1192 669 *~ 0.2;
#X obj 1250 802 *~ 0.15;
#X obj 1049 797 *~ 0.11;
#X obj 1179 706 lop~ 1000;
#X obj 1355 706 lop~ 10000;
#X obj 1192 639 clip~ -1 1;
#X obj 1188 608 *~ 2;
#X obj 1094 350 + 32;
#X obj 1299 689 / 2;
#X obj 1361 738 delwrite~ flippyflap 1000;
#X obj 1210 749 delread~ flippyflap 100;
#X obj 1027 748 delread~ flippyflap 147;
#X obj 289 782 s~ l1;
#X obj 327 783 s~ r1;
#X obj 684 804 r~ l1;
#X obj 746 805 r~ r1;
#X obj 841 809 r~ l2;
#X obj 886 807 r~ r2;
#X obj 1141 835 s~ l2;
#X obj 1178 836 s~ r2;
#X obj 678 853 *~ 0.5;
#X obj 899 854 *~ 0.5;
#X obj 1000 15 t f b;
#X obj 1011 130 +;
#X obj 284 101 t f b;
#X obj 296 189 +;
#X obj 296 218 + 1;
#X obj 403 188 f 0;
#X msg 427 149 0;
#X obj 493 161 del 1;
#X obj 1065 217 f 0;
#X msg 1089 178 32;
#X obj 1025 248 + 32;
#X obj 1001 277 abs;
#X obj 1011 160 - 1;
#X obj 1042 86 * -1;
#X obj 1029 57 random 4;
#X obj 385 778 *~ 0.25;
#X obj 184 773 *~ 0.21;
#X obj 447 390 hsl 128 15 0 127 0 0 empty empty empty -2 -8 0 10 -262144
-1 -1 2300 1;
#X obj 1139 380 hsl 128 15 0 127 0 0 empty empty empty -2 -8 0 10 -262144
-1 -1 4100 1;
#X obj 815 597 noise~;
#X obj 815 628 hip~ 10;
#X obj 859 394 *;
#X obj 860 444 clip 1000 10000;
#X obj 858 419 / 4;
#X obj 854 495 line;
#X floatatom 854 517 5 0 0 0 - - -, f 5;
#X obj 847 751 delwrite~ whoosh 5000;
#X obj 713 553 delread~ whoosh 1000;
#X obj 651 523 delread~ whoosh 5000;
#X obj 812 690 *~ 0.17;
#X obj 891 636 bp~ 8000 40;
#X obj 748 890 s~ mixl;
#X obj 828 887 s~ mixr;
#X obj 1383 104 r~ mixl;
#X obj 1437 103 r~ mixr;
#X obj 1527 222 *~ 0.1;
#X obj 1522 182 delread~ verb 71;
#X obj 1584 248 *~ 0.09;
#X obj 1579 208 delread~ verb 113;
#X obj 1286 242 *~ 0.11;
#X obj 1288 214 delread~ verb 209;
#X obj 1227 190 delread~ verb 321;
#X obj 1232 230 *~ 0.12;
#X obj 1582 360 delread~ verb 420;
#X text 1531 155 feeds back;
#X text 1237 159 doesn't feed back;
#X obj 1582 392 *~ 0.08;
#X obj 1521 332 delwrite~ verb 1000;
#X obj 487 655 hip~ 2000;
#X obj 1352 679 hip~ 2000;
#X obj 716 582 *~ 0.125;
#X obj 653 549 *~ 0.125;
#X obj 890 664 *~ 0.1;
#X obj 814 657 lop~ 180;
#X obj 1391 451 s~ wetl;
#X obj 1450 452 s~ wetr;
#X obj 1552 797 r~ wetl;
#X obj 1609 787 r~ wetr;
#X obj 1579 878 dac~;
#X obj 313 143 random 3;
#X obj 1156 77 random 24;
#X obj 45 0 tgl 50 0 empty empty empty 17 7 0 10 -262144 -1 -1 0 1
;
#X obj 44 141 sel 0;
#X obj 89 182 bng 15 250 50 0 empty empty empty 17 7 0 10 -262144 -1
-1;
#X msg 858 469 \$1 1000;
#X obj 90 214 del 400;
#X obj 44 56 metro 100;
#X obj 89 243 bng 15 250 50 0 empty empty empty 17 7 0 10 -262144 -1
-1;
#X msg 129 241 1;
#X msg 129 183 0;
#X obj 12 225 + 1;
#X obj 12 256 * 100;
#X floatatom 12 278 5 0 0 0 - - -, f 5;
#X obj 13 191 random 4;
#X obj 47 114 random 7;
#X obj 324 584 *~ 6;
#X obj 768 841 *~ 0.8;
#X obj 165 16 bng 15 250 50 0 empty empty empty 17 7 0 10 -262144 -1
-1;
#X obj 166 81 bng 15 250 50 0 empty empty empty 17 7 0 10 -262144 -1
-1;
#X obj 109 15 s onoff;
#X obj 1580 614 r onoff;
#X obj 1642 840 *~;
#X obj 1673 789 line~;
#X msg 1654 711 0 10000;
#X obj 1580 687 bng 15 250 50 0 empty empty empty 17 7 0 10 -262144
-1 -1;
#X obj 1652 688 bng 15 250 50 0 empty empty empty 17 7 0 10 -262144
-1 -1;
#X msg 1579 711 0 \, 1 10000;
#X obj 1561 834 *~;
#X obj 1580 661 sel 1 0;
#X obj 1723 711 del 10000;
#X obj 1723 733 bng 15 250 50 0 empty empty empty 17 7 0 10 -262144
-1 -1;
#X obj 167 45 del 6000;
#X obj 1663 873 writesf~ 2;
#X msg 1742 791 open tmp.wav \, start;
#X msg 1878 794 stop;
#X connect 0 0 1 0;
#X connect 1 0 59 0;
#X connect 1 0 62 0;
#X connect 2 0 3 0;
#X connect 3 0 9 0;
#X connect 3 1 21 0;
#X connect 4 0 61 0;
#X connect 5 0 60 0;
#X connect 6 0 7 0;
#X connect 7 0 11 0;
#X connect 7 0 16 0;
#X connect 7 0 18 0;
#X connect 7 0 75 0;
#X connect 8 0 6 0;
#X connect 8 0 71 0;
#X connect 9 0 8 0;
#X connect 10 0 129 0;
#X connect 11 0 10 0;
#X connect 11 1 12 0;
#X connect 12 0 10 1;
#X connect 13 0 17 0;
#X connect 13 0 102 0;
#X connect 15 0 45 0;
#X connect 15 0 69 0;
#X connect 16 0 44 0;
#X connect 16 0 70 0;
#X connect 17 0 44 0;
#X connect 17 0 45 0;
#X connect 18 0 15 0;
#X connect 19 0 14 0;
#X connect 20 0 13 0;
#X connect 21 0 4 0;
#X connect 22 0 23 0;
#X connect 23 0 28 0;
#X connect 23 1 114 0;
#X connect 24 0 25 0;
#X connect 25 0 63 0;
#X connect 26 0 27 0;
#X connect 27 0 30 0;
#X connect 27 0 40 0;
#X connect 27 0 43 0;
#X connect 27 0 75 1;
#X connect 28 0 39 0;
#X connect 29 0 38 0;
#X connect 30 0 29 0;
#X connect 30 1 31 0;
#X connect 31 0 29 1;
#X connect 32 0 35 0;
#X connect 32 0 103 0;
#X connect 33 0 41 0;
#X connect 34 0 41 0;
#X connect 35 0 50 0;
#X connect 35 0 51 0;
#X connect 36 0 41 0;
#X connect 37 0 32 0;
#X connect 38 0 37 0;
#X connect 39 0 26 0;
#X connect 39 0 72 0;
#X connect 40 0 42 0;
#X connect 42 0 33 0;
#X connect 42 0 51 0;
#X connect 43 0 34 0;
#X connect 43 0 50 0;
#X connect 46 0 52 0;
#X connect 47 0 130 0;
#X connect 48 0 86 0;
#X connect 49 0 53 0;
#X connect 52 0 85 0;
#X connect 53 0 86 0;
#X connect 54 0 55 0;
#X connect 54 1 68 0;
#X connect 55 0 66 0;
#X connect 56 0 57 0;
#X connect 56 1 113 0;
#X connect 57 0 58 0;
#X connect 58 0 59 1;
#X connect 59 0 2 0;
#X connect 59 0 56 0;
#X connect 60 0 59 1;
#X connect 61 0 5 0;
#X connect 62 0 54 0;
#X connect 62 0 64 0;
#X connect 63 0 62 1;
#X connect 64 0 65 0;
#X connect 65 0 22 0;
#X connect 66 0 62 1;
#X connect 67 0 55 1;
#X connect 68 0 67 0;
#X connect 69 0 14 0;
#X connect 70 0 14 0;
#X connect 73 0 74 0;
#X connect 73 0 84 0;
#X connect 74 0 107 0;
#X connect 75 0 77 0;
#X connect 76 0 118 0;
#X connect 77 0 76 0;
#X connect 78 0 79 0;
#X connect 79 0 84 1;
#X connect 81 0 104 0;
#X connect 82 0 105 0;
#X connect 83 0 86 0;
#X connect 83 0 85 0;
#X connect 84 0 106 0;
#X connect 87 0 101 0;
#X connect 87 0 108 0;
#X connect 88 0 101 0;
#X connect 88 0 109 0;
#X connect 89 0 101 0;
#X connect 89 0 108 0;
#X connect 90 0 89 0;
#X connect 91 0 101 0;
#X connect 91 0 109 0;
#X connect 92 0 91 0;
#X connect 93 0 109 0;
#X connect 94 0 93 0;
#X connect 95 0 96 0;
#X connect 96 0 108 0;
#X connect 97 0 100 0;
#X connect 100 0 108 0;
#X connect 100 0 109 0;
#X connect 100 0 101 0;
#X connect 102 0 19 0;
#X connect 103 0 36 0;
#X connect 104 0 86 0;
#X connect 105 0 85 0;
#X connect 106 0 80 0;
#X connect 106 0 83 0;
#X connect 107 0 83 0;
#X connect 110 0 141 0;
#X connect 111 0 135 0;
#X connect 113 0 57 1;
#X connect 114 0 24 0;
#X connect 115 0 120 0;
#X connect 115 0 131 0;
#X connect 115 0 133 0;
#X connect 116 0 117 0;
#X connect 117 0 119 0;
#X connect 117 0 123 0;
#X connect 117 0 127 0;
#X connect 118 0 78 0;
#X connect 119 0 121 0;
#X connect 120 0 128 0;
#X connect 121 0 122 0;
#X connect 122 0 0 0;
#X connect 123 0 0 0;
#X connect 124 0 125 0;
#X connect 125 0 126 0;
#X connect 126 0 119 1;
#X connect 127 0 124 0;
#X connect 128 0 116 0;
#X connect 129 0 20 0;
#X connect 130 0 85 0;
#X connect 131 0 145 0;
#X connect 132 0 0 0;
#X connect 134 0 142 0;
#X connect 135 0 112 1;
#X connect 135 0 146 1;
#X connect 136 0 135 1;
#X connect 136 0 141 1;
#X connect 137 0 136 0;
#X connect 138 0 140 0;
#X connect 139 0 137 0;
#X connect 139 0 143 0;
#X connect 140 0 136 0;
#X connect 141 0 112 0;
#X connect 141 0 146 0;
#X connect 142 0 138 0;
#X connect 142 1 139 0;
#X connect 143 0 144 0;
#X connect 145 0 132 0;
#X connect 147 0 146 0;
#X connect 148 0 146 0;
