#N canvas 1713 0 1702 1377 10;
#X obj 353 721 osc~;
#X obj 351 363 metro 100;
#X obj 353 691 mtof;
#X obj 351 254 tgl 15 0 empty empty empty 17 7 0 10 -262144 -1 -1 0
1;
#X obj 353 753 clip~ -0.1 0.1;
#X obj 506 107 line;
#X obj 506 165 + 60;
#X floatatom 506 192 5 0 0 0 - - -, f 5;
#X floatatom 506 236 5 0 0 0 - - -, f 5;
#X obj 506 137 * 120;
#X obj 506 214 expr (60000 / 4) / $f1;
#X obj 275 509 random 48;
#X obj 694 138 * 12;
#X obj 694 166 int;
#X floatatom 694 189 5 0 0 0 - - -, f 5;
#X obj 377 579 % 0;
#X obj 353 616 -;
#X floatatom 392 691 5 0 0 0 - - -, f 5;
#X obj 200 575 t b;
#X obj 239 575 t b;
#X msg 200 608 0;
#X msg 239 608 1;
#X obj 332 831 *~;
#X obj 667 723 osc~;
#X obj 667 693 mtof;
#X obj 667 755 clip~ -0.1 0.1;
#X obj 492 1054 dac~;
#X obj 589 511 random 48;
#X obj 691 581 % 0;
#X obj 667 618 -;
#X floatatom 706 693 5 0 0 0 - - -, f 5;
#X obj 514 577 t b;
#X obj 553 577 t b;
#X msg 514 610 0;
#X msg 553 610 1;
#X obj 646 833 *~;
#X obj 667 788 *~ 0.2;
#X obj 667 664 + 48;
#X obj 527 931 *~ 0.33;
#X obj 437 931 *~ 0.33;
#X obj 679 975 s~ aux_r;
#X obj 304 972 s~ aux_l;
#X obj 850 456 r~ aux_l;
#X obj 1059 456 r~ aux_r;
#X obj 198 852 *~ 0.5;
#X obj 753 831 delread~ del_l 100;
#X obj 198 830 delread~ del_r 100;
#X obj 917 574 delwrite~ del_l 300;
#X obj 506 316 s metro_dur;
#X obj 753 782 r metro_dur;
#X obj 198 773 r metro_dur;
#X obj 353 662 + 24;
#X obj 868 136 * 1000;
#X obj 868 158 hsl 128 15 0 1000 0 0 empty empty empty -2 -8 0 10 -262144
-1 -1 0 1;
#X obj 506 289 int;
#X floatatom 468 316 5 0 0 0 - - -, f 5;
#X obj 200 509 random 3;
#X obj 514 511 random 7;
#X obj 1127 504 moog~;
#X obj 1059 388 osc~ 0.1;
#X obj 1122 434 +~ 2;
#X obj 1122 456 *~ 1200;
#X obj 753 853 *~ 0.5;
#X obj 1127 542 *~ 3;
#X obj 753 807 * 2;
#X obj 1127 575 delwrite~ del_r 1000;
#X obj 198 801 * 3;
#X obj 917 503 moog~;
#X obj 912 433 +~ 2;
#X obj 844 395 osc~ 0.097321;
#X obj 917 537 *~ 3;
#X obj 912 455 *~ 800;
#X msg 462 50 0;
#X obj 351 281 t f f;
#X obj 363 319 s onoff;
#X obj 373 832 r onoff;
#X obj 683 832 r onoff;
#X obj 462 17 loadbang;
#X obj 946 433 / 2;
#X obj 1031 226 + 500;
#X obj 841 538 *~ 0.1;
#X obj 1071 542 *~ 0.1;
#X obj 200 542 moses 2;
#X obj 353 786 *~ 0.3;
#X obj 514 544 moses 5;
#X obj 1161 433 * 2;
#X obj 1181 456 sig~ 3.3;
#X obj 971 455 sig~ 3.5;
#X msg 506 51 0 \, 1 60000;
#X msg 593 51 0 90000;
#X obj 417 1014 *~ 5;
#X obj 559 1015 *~ 5;
#X connect 0 0 4 0;
#X connect 1 0 11 0;
#X connect 1 0 27 0;
#X connect 1 0 56 0;
#X connect 1 0 57 0;
#X connect 2 0 0 0;
#X connect 3 0 73 0;
#X connect 4 0 83 0;
#X connect 5 0 9 0;
#X connect 5 0 12 0;
#X connect 5 0 52 0;
#X connect 6 0 7 0;
#X connect 7 0 10 0;
#X connect 8 0 1 1;
#X connect 8 0 54 0;
#X connect 9 0 6 0;
#X connect 10 0 8 0;
#X connect 11 0 15 0;
#X connect 11 0 16 0;
#X connect 12 0 13 0;
#X connect 13 0 14 0;
#X connect 14 0 15 1;
#X connect 14 0 28 1;
#X connect 15 0 16 1;
#X connect 16 0 51 0;
#X connect 18 0 20 0;
#X connect 19 0 21 0;
#X connect 20 0 22 1;
#X connect 21 0 22 1;
#X connect 22 0 39 0;
#X connect 22 0 26 0;
#X connect 22 0 41 0;
#X connect 23 0 25 0;
#X connect 24 0 23 0;
#X connect 25 0 36 0;
#X connect 27 0 28 0;
#X connect 27 0 29 0;
#X connect 28 0 29 1;
#X connect 29 0 37 0;
#X connect 31 0 33 0;
#X connect 32 0 34 0;
#X connect 33 0 35 1;
#X connect 34 0 35 1;
#X connect 35 0 38 0;
#X connect 35 0 26 1;
#X connect 35 0 40 0;
#X connect 36 0 35 0;
#X connect 37 0 24 0;
#X connect 37 0 30 0;
#X connect 38 0 26 0;
#X connect 39 0 26 1;
#X connect 42 0 67 0;
#X connect 42 0 80 0;
#X connect 43 0 58 0;
#X connect 43 0 81 0;
#X connect 44 0 41 0;
#X connect 44 0 90 0;
#X connect 45 0 62 0;
#X connect 46 0 44 0;
#X connect 49 0 64 0;
#X connect 50 0 66 0;
#X connect 51 0 2 0;
#X connect 51 0 17 0;
#X connect 52 0 53 0;
#X connect 53 0 79 0;
#X connect 54 0 48 0;
#X connect 54 0 55 0;
#X connect 56 0 82 0;
#X connect 57 0 84 0;
#X connect 58 0 63 0;
#X connect 59 0 60 0;
#X connect 60 0 61 0;
#X connect 61 0 58 1;
#X connect 62 0 40 0;
#X connect 62 0 91 0;
#X connect 63 0 65 0;
#X connect 64 0 45 0;
#X connect 66 0 46 0;
#X connect 67 0 70 0;
#X connect 68 0 71 0;
#X connect 69 0 68 0;
#X connect 70 0 47 0;
#X connect 71 0 67 1;
#X connect 72 0 5 0;
#X connect 73 0 1 0;
#X connect 73 1 74 0;
#X connect 75 0 22 1;
#X connect 76 0 35 1;
#X connect 77 0 72 0;
#X connect 78 0 71 1;
#X connect 79 0 78 0;
#X connect 79 0 85 0;
#X connect 80 0 47 0;
#X connect 81 0 65 0;
#X connect 82 0 18 0;
#X connect 82 1 19 0;
#X connect 83 0 22 0;
#X connect 84 0 31 0;
#X connect 84 1 32 0;
#X connect 85 0 61 1;
#X connect 86 0 58 2;
#X connect 87 0 67 2;
#X connect 88 0 5 0;
#X connect 89 0 5 0;
#X connect 90 0 26 0;
#X connect 91 0 26 1;
