#N canvas 1479 535 761 466 10;
#X obj 344 347 outlet~;
#X text 6 6 expects a list message of the form: [attack ms] [sustain
ms] [release ms], f 39;
#X obj 339 79 unpack f f f;
#X obj 356 194 del;
#X obj 311 119 t f b f;
#X obj 398 227 f;
#X obj 371 162 +;
#X msg 398 259 0 \$1;
#X obj 344 311 line~;
#X obj 339 40 inlet;
#X msg 344 261 1 \$1;
#X connect 2 0 4 0;
#X connect 2 1 6 1;
#X connect 2 2 5 1;
#X connect 3 0 5 0;
#X connect 4 0 10 0;
#X connect 4 1 3 0;
#X connect 4 2 6 0;
#X connect 5 0 7 0;
#X connect 6 0 3 1;
#X connect 7 0 8 0;
#X connect 8 0 0 0;
#X connect 9 0 2 0;
#X connect 10 0 8 0;
