#N canvas 1697 172 1483 1051 10;
#X obj 127 91 pink~;
#X obj 390 116 osc~;
#X obj 390 173 +~ 1000;
#X obj 390 204 vsnapshot~;
#X obj 327 612 dac~;
#X floatatom 390 240 13 0 0 0 - - -, f 13;
#X obj 390 144 *~ 800;
#X obj 304 270 bp~ 100 10;
#X obj 304 238 bp~ 100 10;
#X obj 304 205 bp~ 100 10;
#X obj 304 173 bp~ 100 10;
#X obj 546 609 s lfoclock;
#X obj 606 588 tgl 15 0 empty empty empty 17 7 0 10 -262144 -1 -1 1
1;
#X msg 628 586 1;
#X obj 660 586 loadbang;
#X obj 546 587 metro 10;
#X obj 316 126 r lfoclock;
#X obj 127 122 s~ pink;
#X obj 123 316 r~ pink;
#X obj 265 126 r~ pink;
#X obj 598 118 osc~;
#X obj 598 206 vsnapshot~;
#X floatatom 598 242 13 0 0 0 - - -, f 13;
#X obj 512 272 bp~ 100 10;
#X obj 512 240 bp~ 100 10;
#X obj 512 207 bp~ 100 10;
#X obj 512 175 bp~ 100 10;
#X obj 524 128 r lfoclock;
#X obj 473 128 r~ pink;
#X obj 598 90 sig~ 0.1137;
#X obj 390 88 sig~ 0.1;
#X obj 598 146 *~ 700;
#X obj 598 175 +~ 800;
#X obj 324 378 *~ 0.5;
#X obj 376 378 *~ 0.5;
#X obj 823 117 osc~;
#X obj 823 205 vsnapshot~;
#X floatatom 823 241 13 0 0 0 - - -, f 13;
#X obj 737 271 bp~ 100 10;
#X obj 737 239 bp~ 100 10;
#X obj 737 206 bp~ 100 10;
#X obj 737 174 bp~ 100 10;
#X obj 749 127 r lfoclock;
#X obj 698 127 r~ pink;
#X obj 823 88 sig~ 0.0678312;
#X obj 540 450 hsl 300 10 0 2000 0 0 empty empty empty -2 -8 0 10 -262144
-1 -1 24418 1;
#X obj 540 467 hsl 300 10 0 2000 0 0 empty empty empty -2 -8 0 10 -262144
-1 -1 4118 1;
#X obj 540 484 hsl 300 10 0 2000 0 0 empty empty empty -2 -8 0 10 -262144
-1 -1 2404 1;
#X obj 1039 114 osc~;
#X obj 1039 202 vsnapshot~;
#X floatatom 1039 238 13 0 0 0 - - -, f 13;
#X obj 953 268 bp~ 100 10;
#X obj 953 236 bp~ 100 10;
#X obj 953 203 bp~ 100 10;
#X obj 953 171 bp~ 100 10;
#X obj 965 124 r lfoclock;
#X obj 914 124 r~ pink;
#X obj 1039 85 sig~ 0.069;
#X obj 823 145 *~ 100;
#X obj 823 174 +~ 150;
#X obj 1039 142 *~ 100;
#X obj 1039 171 +~ 150;
#X obj 540 501 hsl 300 10 0 2000 0 0 empty empty empty -2 -8 0 10 -262144
-1 -1 748 1;
#X obj 738 302 *~ 2;
#X obj 954 299 *~ 2;
#X obj 287 474 s~ l;
#X obj 362 475 s~ r;
#X obj 320 578 r~ l;
#X obj 353 578 r~ r;
#X obj 242 739 delwrite~ left 1000;
#X obj 575 740 delwrite~ right 1000;
#X obj 242 717 r~ l;
#X obj 575 717 r~ r;
#X obj 292 692 delread~ left 1000;
#X obj 292 718 *~ 0.4;
#X obj 617 718 *~ 0.4;
#X obj 617 693 delread~ right 1000;
#X obj 267 577 r~ dell;
#X obj 617 767 s~ delr;
#X obj 292 766 s~ dell;
#X obj 390 578 r~ delr;
#X obj 743 693 delread~ right 333;
#X obj 743 718 *~ 0.2;
#X obj 411 717 *~ 0.2;
#X obj 411 692 delread~ left 333;
#X obj 304 303 *~ 1.1;
#X obj 512 303 *~ 1.2;
#X obj 170 371 osc~;
#X obj 170 343 sig~ 0.047;
#X obj 170 399 *~ 0.02;
#X obj 170 428 +~ 0.03;
#X obj 123 346 *~;
#X text 123 294 background noise varies;
#X text 127 69 noise source;
#X text 307 557 summed outs;
#X text 724 421 center frequencies;
#X text 538 518 0Hz;
#X text 817 518 2kHz;
#X text 341 64 -----------------------------------------------------oscillators-----------------------------------------------------
, f 119;
#X text 304 669 ----------------------------------delay lines---------------------------------
, f 82;
#X text 545 561 bangs for lfos (bp center is control);
#X connect 0 0 17 0;
#X connect 1 0 6 0;
#X connect 2 0 3 0;
#X connect 3 0 5 0;
#X connect 3 0 7 1;
#X connect 3 0 8 1;
#X connect 3 0 9 1;
#X connect 3 0 10 1;
#X connect 5 0 45 0;
#X connect 6 0 2 0;
#X connect 7 0 85 0;
#X connect 8 0 7 0;
#X connect 9 0 8 0;
#X connect 10 0 9 0;
#X connect 12 0 15 0;
#X connect 13 0 12 0;
#X connect 14 0 13 0;
#X connect 15 0 11 0;
#X connect 16 0 3 0;
#X connect 18 0 91 0;
#X connect 19 0 10 0;
#X connect 20 0 31 0;
#X connect 21 0 22 0;
#X connect 21 0 23 1;
#X connect 21 0 24 1;
#X connect 21 0 25 1;
#X connect 21 0 26 1;
#X connect 22 0 46 0;
#X connect 23 0 86 0;
#X connect 24 0 23 0;
#X connect 25 0 24 0;
#X connect 26 0 25 0;
#X connect 27 0 21 0;
#X connect 28 0 26 0;
#X connect 29 0 20 0;
#X connect 30 0 1 0;
#X connect 31 0 32 0;
#X connect 32 0 21 0;
#X connect 33 0 66 0;
#X connect 34 0 65 0;
#X connect 35 0 58 0;
#X connect 36 0 37 0;
#X connect 36 0 38 1;
#X connect 36 0 39 1;
#X connect 36 0 40 1;
#X connect 36 0 41 1;
#X connect 37 0 47 0;
#X connect 38 0 63 0;
#X connect 39 0 38 0;
#X connect 40 0 39 0;
#X connect 41 0 40 0;
#X connect 42 0 36 0;
#X connect 43 0 41 0;
#X connect 44 0 35 0;
#X connect 48 0 60 0;
#X connect 49 0 50 0;
#X connect 49 0 51 1;
#X connect 49 0 52 1;
#X connect 49 0 53 1;
#X connect 49 0 54 1;
#X connect 50 0 62 0;
#X connect 51 0 64 0;
#X connect 52 0 51 0;
#X connect 53 0 52 0;
#X connect 54 0 53 0;
#X connect 55 0 49 0;
#X connect 56 0 54 0;
#X connect 57 0 48 0;
#X connect 58 0 59 0;
#X connect 59 0 36 0;
#X connect 60 0 61 0;
#X connect 61 0 49 0;
#X connect 63 0 65 0;
#X connect 64 0 66 0;
#X connect 67 0 4 0;
#X connect 68 0 4 1;
#X connect 71 0 69 0;
#X connect 72 0 70 0;
#X connect 73 0 74 0;
#X connect 74 0 69 0;
#X connect 74 0 79 0;
#X connect 75 0 70 0;
#X connect 75 0 78 0;
#X connect 76 0 75 0;
#X connect 77 0 4 0;
#X connect 80 0 4 1;
#X connect 81 0 82 0;
#X connect 82 0 70 0;
#X connect 82 0 78 0;
#X connect 83 0 69 0;
#X connect 83 0 79 0;
#X connect 84 0 83 0;
#X connect 85 0 33 0;
#X connect 85 0 65 0;
#X connect 86 0 34 0;
#X connect 86 0 66 0;
#X connect 87 0 89 0;
#X connect 88 0 87 0;
#X connect 89 0 90 0;
#X connect 90 0 91 1;
#X connect 91 0 65 0;
#X connect 91 0 66 0;
