#N canvas 1343 486 1163 832 10;
#N canvas 0 0 450 300 (subpatch) 0;
#X array scale 12 float 19 black black;
#A 0 0 1 2 3 4 5 6 7 8 9 10 11;
#X coords 0 12 12 0 200 140 1;
#X restore 46 35 graph;
#X obj 953 674 tabwrite scale;
#X obj 953 634 unpack f f;
#X obj 126 291 mtof;
#X obj 138 401 osc~;
#X obj 126 255 r midinote;
#X obj 859 223 t b f;
#X msg 859 258 0;
#X obj 859 295 tabwrite scale;
#X obj 859 109 tgl 15 0 empty empty empty 17 7 0 10 -262144 -1 -1 0
1;
#X obj 939 147 sel 1;
#X msg 883 109 0;
#X obj 859 184 counter 12;
#X msg 859 78 1;
#X text 858 53 zero out the scale;
#X obj 859 148 metro 1;
#X obj 425 314 vsnapshot~;
#N canvas 2745 437 450 327 lfo~ 0;
#X obj 33 79 osc~;
#X obj 33 108 *~ 0.5;
#X obj 33 138 +~ 0.5;
#X obj 33 174 outlet~;
#X obj 33 39 inlet;
#X text 27 10 oscillates between 0 and 1;
#X connect 0 0 1 0;
#X connect 1 0 2 0;
#X connect 2 0 3 0;
#X connect 4 0 0 0;
#X restore 431 214 pd lfo~;
#X obj 431 181 hsl 128 15 0 1 0 0 empty empty empty -2 -8 0 10 -262144
-1 -1 7000 1;
#X obj 425 405 hsl 200 15 0 88 0 0 empty empty empty -2 -8 0 10 -262144
-1 -1 10507 1;
#X obj 363 182 tgl 15 0 empty empty empty 17 7 0 10 -262144 -1 -1 1
1;
#N canvas 2745 437 450 327 lfo~ 0;
#X obj 33 79 osc~;
#X obj 33 108 *~ 0.5;
#X obj 33 138 +~ 0.5;
#X obj 33 174 outlet~;
#X obj 33 39 inlet;
#X text 27 10 oscillates between 0 and 1;
#X connect 0 0 1 0;
#X connect 1 0 2 0;
#X connect 2 0 3 0;
#X connect 4 0 0 0;
#X restore 572 214 pd lfo~;
#X obj 572 181 hsl 128 15 0 4 0 0 empty empty empty -2 -8 0 10 -262144
-1 -1 2200 1;
#X obj 499 283 +~;
#X obj 502 545 % 4;
#X obj 538 545 div 4;
#X floatatom 502 567 5 0 0 0 - - -, f 5;
#X floatatom 538 567 5 0 0 0 - - -, f 5;
#X obj 502 620 tabread scale;
#X obj 538 588 * 12;
#X obj 508 659 +;
#X obj 425 425 t f f;
#X floatatom 508 681 5 0 0 0 - - -, f 5;
#X obj 508 731 s midinote;
#X obj 105 500 vline~;
#X obj 141 589 *~;
#X obj 145 715 dac~;
#X floatatom 486 215 5 0 0 0 - - -, f 5;
#X floatatom 626 214 5 0 0 0 - - -, f 5;
#X obj 175 481 clip~ -0.4 0.4;
#X obj 156 653 *~ 0.2;
#X msg 101 452 1 \, 0 120;
#X floatatom 551 475 5 0 0 0 - - -, f 5;
#X obj 362 215 metro 150;
#X obj 572 243 *~ 0.5;
#X obj 629 245 hsl 128 15 0 1 0 0 empty empty empty -2 -8 0 10 -262144
-1 -1 5000 1;
#X floatatom 629 273 5 0 0 0 - - -, f 5;
#X obj 425 345 * 16;
#X obj 425 373 + 10;
#X obj 413 69 hsl 128 15 20 220 0 0 empty empty empty -2 -8 0 10 -262144
-1 -1 7900 1;
#X text 413 45 tempo;
#X floatatom 413 115 5 0 0 0 - - -, f 5;
#X obj 413 93 expr 1000 * (60/$f1) / 4;
#X text 549 448 number of notes in the table;
#X obj 465 345 * 4;
#X obj 195 400 noteout;
#X obj 126 330 t b f f;
#X floatatom 574 92 5 0 0 0 - - -, f 5;
#X obj 591 475 r notes;
#X msg 757 412 0 0 \, 1 1 \, 2 2 \, 3 3 \, 4 4 \, 5 5 \, 6 6 \, 7 7
\, 8 8 \, 9 9 \, 10 10 \, 11 11 \; notes 12;
#X msg 877 466 0 0 \, 2 1 \, 4 2 \, 5 3 \, 7 4 \; notes 5;
#X msg 952 503 0 0 \, 5 1 \, 7 2 \; notes 3;
#X msg 975 549 0 0 \, 6 1 \; notes 2;
#X obj 465 373 * 2;
#X text 202 376 lol I have no idea if this works;
#X connect 2 0 1 0;
#X connect 2 1 1 1;
#X connect 3 0 56 0;
#X connect 4 0 39 0;
#X connect 5 0 3 0;
#X connect 6 0 7 0;
#X connect 6 1 8 1;
#X connect 7 0 8 0;
#X connect 9 0 15 0;
#X connect 10 0 11 0;
#X connect 11 0 9 0;
#X connect 12 0 6 0;
#X connect 12 2 10 0;
#X connect 13 0 9 0;
#X connect 15 0 12 0;
#X connect 16 0 47 0;
#X connect 17 0 23 0;
#X connect 18 0 17 0;
#X connect 18 0 37 0;
#X connect 19 0 31 0;
#X connect 20 0 43 0;
#X connect 21 0 44 0;
#X connect 22 0 21 0;
#X connect 22 0 38 0;
#X connect 23 0 16 0;
#X connect 24 0 26 0;
#X connect 25 0 27 0;
#X connect 26 0 28 0;
#X connect 27 0 29 0;
#X connect 28 0 30 0;
#X connect 29 0 30 1;
#X connect 30 0 32 0;
#X connect 31 0 24 0;
#X connect 31 1 25 0;
#X connect 32 0 33 0;
#X connect 34 0 35 0;
#X connect 35 0 40 0;
#X connect 39 0 35 1;
#X connect 40 0 36 1;
#X connect 40 0 36 0;
#X connect 41 0 34 0;
#X connect 42 0 24 1;
#X connect 42 0 25 1;
#X connect 42 0 54 0;
#X connect 42 0 63 0;
#X connect 43 0 16 0;
#X connect 44 0 23 1;
#X connect 45 0 46 0;
#X connect 45 0 44 1;
#X connect 47 0 48 0;
#X connect 48 0 19 0;
#X connect 49 0 52 0;
#X connect 49 0 57 0;
#X connect 51 0 43 1;
#X connect 52 0 51 0;
#X connect 54 0 47 1;
#X connect 56 0 41 0;
#X connect 56 1 4 0;
#X connect 56 2 55 0;
#X connect 58 0 42 0;
#X connect 59 0 2 0;
#X connect 60 0 2 0;
#X connect 61 0 2 0;
#X connect 62 0 2 0;
#X connect 63 0 48 1;
